<?xml version="1.0" standalone="no"?>
<!DOCTYPE svg PUBLIC "-//W3C//DTD SVG 20010904//EN"
 "http://www.w3.org/TR/2001/REC-SVG-20010904/DTD/svg10.dtd">
<svg version="1.0" xmlns="http://www.w3.org/2000/svg"
 width="256.000000pt" height="256.000000pt" viewBox="0 0 256.000000 256.000000"
 preserveAspectRatio="xMidYMid meet">

<g transform="translate(0.000000,256.000000) scale(0.100000,-0.100000)"
fill="#000000" stroke="none">
<path d="M1585 2230 c-16 -5 -61 -16 -100 -26 -38 -9 -77 -21 -85 -25 -8 -4
-37 -17 -65 -29 -149 -65 -333 -230 -416 -374 l-44 -75 -161 -1 c-89 0 -175
-5 -192 -11 -65 -22 -81 -92 -33 -140 l29 -29 229 0 c227 0 230 0 251 -23 30
-32 29 -81 -3 -112 l-24 -25 -379 0 c-369 0 -380 -1 -406 -21 -34 -27 -36 -77
-3 -107 23 -22 27 -22 396 -22 391 0 418 -3 435 -45 12 -32 6 -75 -14 -95 -18
-18 -33 -20 -155 -20 -175 0 -205 -13 -205 -90 0 -50 39 -70 134 -70 l82 0 22
-46 c88 -180 280 -367 457 -444 28 -12 57 -25 65 -29 8 -4 47 -15 85 -25 39
-10 86 -22 106 -27 56 -14 226 -11 309 6 133 28 286 88 355 140 19 15 19 16
-6 38 -14 12 -68 74 -119 137 -51 63 -96 119 -101 124 -4 4 -33 -2 -66 -14
-82 -30 -236 -38 -323 -16 -109 27 -187 72 -270 156 -176 177 -217 420 -110
646 65 136 199 251 343 296 89 27 244 29 322 4 28 -9 55 -16 62 -16 14 0 223
266 223 284 0 25 -157 87 -294 117 -94 20 -273 25 -331 9z"/>
<path d="M404 1040 c-29 -12 -64 -58 -64 -86 0 -12 12 -36 26 -53 69 -82 194
6 143 101 -8 15 -68 50 -81 47 -2 0 -13 -4 -24 -9z"/>
</g>
</svg>
